<?xml version="1.0" encoding="UTF-8"?>
<svg width="24px" height="24px" viewBox="0 0 24 24" version="1.1" xmlns="http://www.w3.org/2000/svg" xmlns:xlink="http://www.w3.org/1999/xlink">
    <title>Group 5</title>
    <g id="Modales" stroke="none" stroke-width="1" fill="none" fill-rule="evenodd">
        <g id="Modal-cto-consumo_desktop" transform="translate(-322.000000, -370.000000)">
            <g id="Group-8" transform="translate(40.000000, 77.000000)">
                <g id="Group-2" transform="translate(0.000000, 289.000000)">
                    <g id="Group-11" transform="translate(282.000000, 0.000000)">
                        <g id="Group-14" transform="translate(0.000000, 4.000000)">
                            <rect id="Rectangle" fill="#FFFFFF" x="2" y="2" width="20" height="20"></rect>
                            <g id="Page-1">
                                <polygon id="Fill-1" points="0 24 24 24 24 0 0 0"></polygon>
                                <g id="Group-18" transform="translate(0.750000, 0.750000)">
                                    <path d="M10.5,22.5 L20.25,22.5 C21.49275,22.5 22.5,21.49275 22.5,20.25 L22.5,10.5 L10.5,10.5 L10.5,22.5 Z" id="Fill-2" fill="#1BB5EC"></path>
                                    <path d="M12,0 L2.25,0 C1.00725,0 0,1.00725 0,2.25 L0,12 L12,12 L12,0 Z" id="Fill-4" fill="#1BB5EC"></path>
                                    <path d="M21,10.5 L12,10.5 L12,1.5 L20.25,1.5 C20.664,1.5 21,1.83675 21,2.25 L21,10.5 Z M21,20.25 C21,20.66325 20.664,21 20.25,21 L12,21 L12,12 L21,12 L21,20.25 Z M10.5,10.5 L1.5,10.5 L1.5,2.25 C1.5,1.83675 1.836,1.5 2.25,1.5 L10.5,1.5 L10.5,10.5 Z M10.5,21 L2.25,21 C1.836,21 1.5,20.66325 1.5,20.25 L1.5,12 L10.5,12 L10.5,21 Z M20.25,0 L2.25,0 C1.0095,0 0,1.0095 0,2.25 L0,20.25 C0,21.4905 1.0095,22.5 2.25,22.5 L20.25,22.5 C21.4905,22.5 22.5,21.4905 22.5,20.25 L22.5,2.25 C22.5,1.0095 21.4905,0 20.25,0 L20.25,0 Z" id="Fill-6" fill="#364F6B"></path>
                                    <path d="M18,5.25 L15,5.25 C14.58525,5.25 14.25,5.586 14.25,6 C14.25,6.414 14.58525,6.75 15,6.75 L18,6.75 C18.41475,6.75 18.75,6.414 18.75,6 C18.75,5.586 18.41475,5.25 18,5.25" id="Fill-8" fill="#364F6B"></path>
                                    <path d="M15,18.75 L18,18.75 C18.41475,18.75 18.75,18.414 18.75,18 C18.75,17.586 18.41475,17.25 18,17.25 L15,17.25 C14.58525,17.25 14.25,17.586 14.25,18 C14.25,18.414 14.58525,18.75 15,18.75" id="Fill-10" fill="#364F6B"></path>
                                    <path d="M15,15.75 L18,15.75 C18.41475,15.75 18.75,15.414 18.75,15 C18.75,14.586 18.41475,14.25 18,14.25 L15,14.25 C14.58525,14.25 14.25,14.586 14.25,15 C14.25,15.414 14.58525,15.75 15,15.75" id="Fill-12" fill="#364F6B"></path>
                                    <path d="M4.5,6.75 L5.25,6.75 L5.25,7.5 C5.25,7.914 5.58525,8.25 6,8.25 C6.41475,8.25 6.75,7.914 6.75,7.5 L6.75,6.75 L7.5,6.75 C7.91475,6.75 8.25,6.414 8.25,6 C8.25,5.586 7.91475,5.25 7.5,5.25 L6.75,5.25 L6.75,4.5 C6.75,4.086 6.41475,3.75 6,3.75 C5.58525,3.75 5.25,4.086 5.25,4.5 L5.25,5.25 L4.5,5.25 C4.08525,5.25 3.75,5.586 3.75,6 C3.75,6.414 4.08525,6.75 4.5,6.75" id="Fill-14" fill="#364F6B"></path>
                                    <path d="M3.96975,18.53025 C4.263,18.8235 4.737,18.8235 5.03025,18.53025 L6,17.5605 L6.96975,18.53025 C7.263,18.8235 7.737,18.8235 8.03025,18.53025 C8.3235,18.237 8.3235,17.763 8.03025,17.46975 L7.0605,16.5 L8.03025,15.53025 C8.3235,15.237 8.3235,14.763 8.03025,14.46975 C7.737,14.1765 7.263,14.1765 6.96975,14.46975 L6,15.4395 L5.03025,14.46975 C4.737,14.1765 4.263,14.1765 3.96975,14.46975 C3.6765,14.763 3.6765,15.237 3.96975,15.53025 L4.9395,16.5 L3.96975,17.46975 C3.6765,17.763 3.6765,18.237 3.96975,18.53025" id="Fill-16" fill="#364F6B"></path>
                                </g>
                            </g>
                        </g>
                    </g>
                </g>
            </g>
        </g>
    </g>
</svg>