<?xml version="1.0" encoding="UTF-8"?>
<svg width="24px" height="24px" viewBox="0 0 24 24" version="1.1" xmlns="http://www.w3.org/2000/svg" xmlns:xlink="http://www.w3.org/1999/xlink">
    <title>Group 3</title>
    <g id="Modales" stroke="none" stroke-width="1" fill="none" fill-rule="evenodd">
        <g id="Modal-cto-consumo_desktop" transform="translate(-40.000000, -370.000000)">
            <g id="Group-8" transform="translate(40.000000, 77.000000)">
                <g id="Group-2" transform="translate(0.000000, 289.000000)">
                    <g id="Group-3" transform="translate(0.000000, 4.000000)">
                        <rect id="Rectangle" fill="#FFFFFF" x="6" y="2" width="2" height="2"></rect>
                        <rect id="Rectangle-Copy" fill="#FFFFFF" x="16" y="2" width="2" height="2"></rect>
                        <g id="Group">
                            <rect id="Rectangle" fill="#FFFFFF" x="1" y="7" width="21" height="15"></rect>
                            <g id="Page-1">
                                <polygon id="Fill-1" points="0 24 24 24 24 0 0 0"></polygon>
                                <g id="Group-6" transform="translate(0.750000, 0.750000)">
                                    <path d="M20.25,1.5 L18,1.5 L18,3.75 L15,3.75 L15,1.5 L7.5,1.5 L7.5,3.75 L4.5,3.75 L4.5,1.5 L2.25,1.5 C1.00725,1.5 0,2.50725 0,3.75 L0,7.5 L22.5,7.5 L22.5,3.75 C22.5,2.50725 21.49275,1.5 20.25,1.5" id="Fill-2" fill="#1BB5EC"></path>
                                    <path d="M21,20.25 C21,20.66325 20.66325,21 20.25,21 L2.25,21 C1.83675,21 1.5,20.66325 1.5,20.25 L1.5,7.5 L21,7.5 L21,20.25 Z M1.5,3.75 C1.5,3.33675 1.83675,3 2.25,3 L3.75,3 L3.75,3.75 C3.75,4.164 4.086,4.5 4.5,4.5 L7.5,4.5 C7.914,4.5 8.25,4.164 8.25,3.75 L8.25,3 L14.25,3 L14.25,3.75 C14.25,4.164 14.586,4.5 15,4.5 L18,4.5 C18.414,4.5 18.75,4.164 18.75,3.75 L18.75,3 L20.25,3 C20.66325,3 21,3.33675 21,3.75 L21,6 L1.5,6 L1.5,3.75 Z M5.25,3 L6.75,3 L6.75,1.5 L5.25,1.5 L5.25,3 Z M15.75,3 L17.25,3 L17.25,1.5 L15.75,1.5 L15.75,3 Z M20.25,1.5 L18.75,1.5 L18.75,0.75 C18.75,0.336 18.414,0 18,0 L15,0 C14.586,0 14.25,0.336 14.25,0.75 L14.25,1.5 L8.25,1.5 L8.25,0.75 C8.25,0.336 7.914,0 7.5,0 L4.5,0 C4.086,0 3.75,0.336 3.75,0.75 L3.75,1.5 L2.25,1.5 C1.0095,1.5 0,2.5095 0,3.75 L0,20.25 C0,21.4905 1.0095,22.5 2.25,22.5 L20.25,22.5 C21.4905,22.5 22.5,21.4905 22.5,20.25 L22.5,3.75 C22.5,2.5095 21.4905,1.5 20.25,1.5 L20.25,1.5 Z" id="Fill-4" fill="#364F6B"></path>
                                </g>
                            </g>
                        </g>
                    </g>
                </g>
            </g>
        </g>
    </g>
</svg>