<?xml version="1.0" encoding="UTF-8"?>
<svg width="24px" height="24px" viewBox="0 0 24 24" version="1.1" xmlns="http://www.w3.org/2000/svg" xmlns:xlink="http://www.w3.org/1999/xlink">
    <!-- Generator: Sketch 61.1 (89650) - https://sketch.com -->
    <title>Group 25</title>
    <desc>Created with Sketch.</desc>
    <g id="Page-1" stroke="none" stroke-width="1" fill="none" fill-rule="evenodd">
        <g id="03_hazte-socio-menu" transform="translate(-605.000000, -286.000000)" stroke="#FFFFFF" stroke-width="0.751295985">
            <g id="Group-10" transform="translate(604.000000, 154.000000)">
                <g id="Group-6" transform="translate(1.000000, 128.000000)">
                    <g id="Group-25" transform="translate(0.000000, 4.000000)">
                        <g id="Group-23" fill-rule="nonzero">
                            <path d="M1.25785161,9.90344707 L1.25785161,21.1111733 C1.25785161,22.2418557 2.17445075,23.1584548 3.3051331,23.1584548 L19.9850424,23.1584548 C21.1157248,23.1584548 22.0323239,22.2418557 22.0323239,21.1111733 L22.0323239,9.90344707 L1.25785161,9.90344707 Z" id="Rectangle"></path>
                            <path d="M0.375647992,8.58136128 L22.9145275,8.58136128 L22.9145275,6.98924793 C22.9145275,5.85856559 21.9979284,4.94196645 20.867246,4.94196645 L2.42292948,4.94196645 C1.29224714,4.94196645 0.375647992,5.85856559 0.375647992,6.98924793 L0.375647992,8.58136128 Z" id="Rectangle"></path>
                            <path d="M11.2922063,4.74194609 L9.47329976,2.02921271 C8.72292546,0.910097823 7.20740503,0.611174516 6.08829015,1.36154882 C6.08733218,1.36219114 6.08637466,1.36283415 6.0854176,1.36347783 L5.98055727,1.4340032 C4.89601976,2.16342497 4.55646181,3.60518514 5.20148296,4.74194609 L5.20148296,4.74194609 L5.20148296,4.74194609" id="Path-11"></path>
                            <path d="M18.7027167,4.74194609 L16.8838102,2.02921271 C16.1334359,0.910097823 14.6179154,0.611174516 13.4988005,1.36154882 C13.4978426,1.36219114 13.4968851,1.36283415 13.495928,1.36347783 L13.3910677,1.4340032 C12.3065302,2.16342497 11.9669722,3.60518514 12.6119934,4.74194609 L12.6119934,4.74194609 L12.6119934,4.74194609" id="Path-11" transform="translate(15.085682, 2.370973) scale(-1, 1) translate(-15.085682, -2.370973) "></path>
                        </g>
                        <g id="Group-8" transform="translate(7.278180, 11.591424)" stroke-linecap="round">
                            <g id="Group">
                                <ellipse id="Oval" cx="4.60951391" cy="4.58827191" rx="4.60951391" ry="4.58827191"></ellipse>
                            </g>
                            <g id="Group-2" transform="translate(2.911272, 1.448928)">
                                <path d="M0,4.14852968 C0,4.75969282 0.562644265,5.40933109 1.63979903,5.40933109 C2.71695379,5.40933109 3.39648393,4.90944042 3.39648393,4.25446904 C3.39648393,3.59949765 2.91146402,3.13906764 1.63979903,3.01932122 C0.36813404,2.8995748 0,2.45886747 0,1.85254009 C0,1.2462127 0.487307281,0.676166386 1.63979903,0.676166386 C2.79229078,0.676166386 3.11591222,1.36433536 3.11591222,1.86278418" id="Path-34"></path>
                                <line x1="1.69824197" y1="0.161939818" x2="1.69824197" y2="6.04406189" id="Path-35"></line>
                            </g>
                        </g>
                    </g>
                </g>
            </g>
        </g>
    </g>
</svg>