<?xml version="1.0" encoding="UTF-8"?>
<svg width="25px" height="20px" viewBox="0 0 25 20" version="1.1" xmlns="http://www.w3.org/2000/svg" xmlns:xlink="http://www.w3.org/1999/xlink">
    <!-- Generator: Sketch 61.1 (89650) - https://sketch.com -->
    <title>Group 19</title>
    <desc>Created with Sketch.</desc>
    <g id="Page-1" stroke="none" stroke-width="1" fill="none" fill-rule="evenodd">
        <g id="03_hazte-socio-menu" transform="translate(-605.000000, -160.000000)">
            <g id="Group-10" transform="translate(604.000000, 154.000000)">
                <g id="Group-4" transform="translate(1.000000, 0.000000)">
                    <g id="Group-19" transform="translate(0.000000, 4.000000)">
                        <rect id="Rectangle-Copy-6" x="1.81898943e-13" y="0" width="24.2826927" height="24.2826927"></rect>
                        <rect id="Combined-Shape" stroke="#FFFFFF" stroke-width="0.800000012" x="0.400000006" y="7.14519241" width="19.8831406" height="14.2291857" rx="1.58399994"></rect>
                        <line x1="19.942308" y1="10.6135533" x2="0.469230776" y2="10.6135533" id="Line-2" stroke="#FFFFFF" stroke-width="0.800000012" stroke-linecap="square"></line>
                        <line x1="19.942308" y1="13.4289379" x2="0.469230776" y2="13.4289379" id="Line-2" stroke="#FFFFFF" stroke-width="0.800000012" stroke-linecap="square"></line>
                        <path d="M3.14246611,14.9717818 L3.14246611,16.5944952 C3.14246611,17.1777079 3.6152534,17.6504952 4.19846607,17.6504952 L22.6986927,17.6504952 C23.5735117,17.6504952 24.2826927,16.9413142 24.2826927,16.0664952 L24.2826927,4.04734616 C24.2826927,3.46413349 23.8099054,2.9913462 23.2266927,2.9913462 L21.9206803,2.9913462 L21.9206803,2.9913462 L21.9206803,13.3877818 C21.9206803,14.2626008 21.2114994,14.9717818 20.3366804,14.9717818 L3.14246611,14.9717818 L3.14246611,14.9717818 Z" id="Path-8" stroke="#FFFFFF" stroke-width="0.800000012" transform="translate(13.712579, 10.320921) scale(1, -1) translate(-13.712579, -10.320921) "></path>
                    </g>
                </g>
            </g>
        </g>
    </g>
</svg>