<?xml version="1.0" encoding="UTF-8"?>
<svg width="24px" height="24px" viewBox="0 0 24 24" version="1.1" xmlns="http://www.w3.org/2000/svg" xmlns:xlink="http://www.w3.org/1999/xlink">
    <!-- Generator: Sketch 61.1 (89650) - https://sketch.com -->
    <title>Group 21</title>
    <desc>Created with Sketch.</desc>
    <g id="Page-1" stroke="none" stroke-width="1" fill="none" fill-rule="evenodd">
        <g id="02_hazte-socio-menu" transform="translate(-604.000000, -340.000000)" fill-rule="nonzero" stroke="#131F6B" stroke-width="0.770559908">
            <g id="Group-10" transform="translate(603.000000, 270.000000)">
                <g id="Group-9" transform="translate(1.000000, 70.000000)">
                    <g id="Group-21">
                        <path d="M0.385279954,5.69358154 L0.385279954,22.1150693 C0.385279954,22.8810926 1.00626453,23.5020772 1.77228782,23.5020772 L21.7297894,23.5020772 C22.4958127,23.5020772 23.1167972,22.8810926 23.1167972,22.1150693 L23.1167972,7.08058941 C23.1167972,6.31456612 22.4958127,5.69358154 21.7297894,5.69358154 L0.385279954,5.69358154 Z M19.340251,11.8207629 C20.4995971,11.8207629 21.4392241,12.7616451 21.4392241,13.9220251 C21.4392241,15.0824051 20.4995971,16.0232873 19.340251,16.0232873 C18.180905,16.0232873 17.2412779,15.0824051 17.2412779,13.9220251 C17.2412779,12.7616451 18.180905,11.8207629 19.340251,11.8207629 Z" id="Combined-Shape"></path>
                        <path d="M0.385279954,3.50747454 L19.8751314,3.50747454 L19.8751314,0.385279954 L1.77228782,0.385279954 C1.00626453,0.385279954 0.385279954,1.00626453 0.385279954,1.77228782 L0.385279954,3.50747454 Z" id="Rectangle-4"></path>
                    </g>
                </g>
            </g>
        </g>
    </g>
</svg>