<?xml version="1.0" encoding="UTF-8"?>
<svg width="30px" height="30px" viewBox="0 0 30 30" version="1.1" xmlns="http://www.w3.org/2000/svg" xmlns:xlink="http://www.w3.org/1999/xlink">
    <title>calendar</title>
    <g id="Page-1" stroke="none" stroke-width="1" fill="none" fill-rule="evenodd">
        <g id="mobile-01" transform="translate(-34.000000, -1139.000000)">
            <g id="Group-6" transform="translate(34.000000, 1139.000000)">
                <path d="M27,2 L24,2 L24,5 L20,5 L20,2 L10,2 L10,5 L6,5 L6,2 L3,2 C1.343,2 0,3.343 0,5 L0,10 L30,10 L30,5 C30,3.343 28.657,2 27,2" id="Fill-2" fill="#1BB5EC"></path>
                <path d="M28,27 C28,27.551 27.551,28 27,28 L3,28 C2.449,28 2,27.551 2,27 L2,10 L28,10 L28,27 Z M2,5 C2,4.449 2.449,4 3,4 L5,4 L5,5 C5,5.552 5.448,6 6,6 L10,6 C10.552,6 11,5.552 11,5 L11,4 L19,4 L19,5 C19,5.552 19.448,6 20,6 L24,6 C24.552,6 25,5.552 25,5 L25,4 L27,4 C27.551,4 28,4.449 28,5 L28,8 L2,8 L2,5 Z M7,4 L9,4 L9,2 L7,2 L7,4 Z M21,4 L23,4 L23,2 L21,2 L21,4 Z M27,2 L25,2 L25,1 C25,0.448 24.552,0 24,0 L20,0 C19.448,0 19,0.448 19,1 L19,2 L11,2 L11,1 C11,0.448 10.552,0 10,0 L6,0 C5.448,0 5,0.448 5,1 L5,2 L3,2 C1.346,2 0,3.346 0,5 L0,27 C0,28.654 1.346,30 3,30 L27,30 C28.654,30 30,28.654 30,27 L30,5 C30,3.346 28.654,2 27,2 L27,2 Z" id="Fill-4" fill="#364F6B"></path>
            </g>
        </g>
    </g>
</svg>