<?xml version="1.0" encoding="UTF-8"?>
<svg width="36px" height="32px" viewBox="0 0 36 32" version="1.1" xmlns="http://www.w3.org/2000/svg" xmlns:xlink="http://www.w3.org/1999/xlink">
    <title>Group 2</title>
    <g id="Page-1" stroke="none" stroke-width="1" fill="none" fill-rule="evenodd">
        <g id="mob_acceso04" transform="translate(-131.000000, -5599.000000)">
            <g id="Group-34" transform="translate(12.000000, 5594.000000)">
                <g id="Group-27" transform="translate(106.000000, 5.000000)">
                    <g id="Group-2" transform="translate(13.000000, 0.000000)">
                        <line x1="18.2" y1="6.48144908" x2="18.2" y2="4.05063291" id="Line" stroke="#440207" stroke-width="0.808080808" stroke-linecap="square"></line>
                        <ellipse id="Oval" fill="#440207" cx="18" cy="10.9376544" rx="5.2" ry="5.26676836"></ellipse>
                        <path d="M1.61616162,14.584897 L4,14.584897 L4,14.584897 L4,23.4978896 L1.61616162,23.4978896 C0.723580202,23.4978896 5.05695472e-16,22.7743094 0,21.881728 L0,16.2010586 C-1.09309697e-16,15.3084772 0.723580202,14.584897 1.61616162,14.584897 Z" id="Rectangle" fill="#440207"></path>
                        <path d="M33.6161616,14.584897 L36,14.584897 L36,14.584897 L36,23.4978896 L33.6161616,23.4978896 C32.7235802,23.4978896 32,22.7743094 32,21.881728 L32,16.2010586 C32,15.3084772 32.7235802,14.584897 33.6161616,14.584897 Z" id="Rectangle" fill="#440207" transform="translate(34.000000, 19.041393) scale(-1, 1) translate(-34.000000, -19.041393) "></path>
                        <rect id="Rectangle" fill="#FFFFFF" x="4" y="10.5335367" width="28" height="14.990033" rx="4.84848485"></rect>
                        <path d="M26.3272727,8.91299261 C30.3438891,8.91299261 33.6,12.1691035 33.6,16.1857199 L33.6,21.4919307 C33.6,24.2092232 32.109777,26.5784554 29.9020188,27.8269397 L29.9738144,27.8448235 L21.2501899,32 L20.5505412,32 L20.55,28.7639926 L9.67272727,28.764658 C5.65611091,28.764658 2.4,25.5085471 2.4,21.4919307 L2.4,16.1857199 C2.4,12.1691035 5.65611091,8.91299261 9.67272727,8.91299261 L26.3272727,8.91299261 Z M25.1253287,11.7489448 L10.4565657,11.7489448 C7.40518268,11.7489448 4.91811203,14.1650531 4.80408461,17.1885387 L4.8,17.4055105 L4.8,19.445477 L4.81308504,19.445963 C5.01864612,22.6135971 7.62051343,25.1184337 10.8,25.1184337 C12.2855205,25.1184337 13.6449497,24.571641 14.6927966,23.6659284 L14.8981566,23.480056 L14.891,23.4849926 L15.0717002,23.3436768 C16.6227676,22.1875735 18.7334157,22.1266264 20.3467737,23.1862035 L20.537922,23.3187329 C21.6252088,24.4300772 23.1332363,25.1184337 24.8,25.1184337 C28.1137085,25.1184337 30.8,22.39765 30.8,19.0413933 L30.7954445,18.8023823 L30.7954445,18.8023823 L30.7818897,18.5657095 L30.7818943,17.4055105 C30.7818943,14.2814755 28.2493636,11.7489448 25.1253287,11.7489448 Z" id="Combined-Shape" fill="#F42534"></path>
                        <ellipse id="Oval" fill="#2A1844" cx="10.8" cy="18.6362573" rx="2.8" ry="2.83595219"></ellipse>
                        <ellipse id="Oval" fill="#FFFFFF" cx="12.2" cy="18.4336893" rx="1.4" ry="1.4179761"></ellipse>
                        <ellipse id="Oval" fill="#2A1844" cx="24" cy="18.6362573" rx="2.8" ry="2.83595219"></ellipse>
                        <ellipse id="Oval" fill="#FFFFFF" cx="25.4" cy="18.4336893" rx="1.4" ry="1.4179761"></ellipse>
                        <path d="M10.4041875,16.0781675 C10.0950251,15.4528083 9.99721715,14.88987 10.1107636,14.3893526" id="Path-3" stroke="#2A1844" stroke-width="0.666666667"></path>
                        <path d="M9.60418753,16.4833035 C9.29502513,15.8579443 9.19721715,15.295006 9.3107636,14.7944886" id="Path-3" stroke="#2A1844" stroke-width="0.666666667"></path>
                        <path d="M8.80418753,16.8884395 C8.49502513,16.2630804 8.39721715,15.7001421 8.5107636,15.1996246" id="Path-3" stroke="#2A1844" stroke-width="0.666666667"></path>
                        <path d="M23.6041875,16.0781675 C23.2950251,15.4528083 23.1972172,14.88987 23.3107636,14.3893526" id="Path-3" stroke="#2A1844" stroke-width="0.666666667"></path>
                        <rect id="Rectangle" fill="#FFFFFF" x="15.6" y="25.1184337" width="1" height="2.02568014" rx="0.404040404"></rect>
                        <rect id="Rectangle" fill="#FFFFFF" x="19.6" y="25.1184337" width="1" height="2.02568014" rx="0.404040404"></rect>
                        <path d="M18,23.9030256 C18.2209139,23.9030256 18.4,24.0821117 18.4,24.3030256 L18.4,26.7441139 C18.4,26.9650278 18.2209139,27.1441139 18,27.1441139 C17.7790861,27.1441139 17.6,26.9650278 17.6,26.7441139 L17.6,24.3030256 C17.6,24.0821117 17.7790861,23.9030256 18,23.9030256 Z" id="Rectangle" fill="#FFFFFF"></path>
                        <path d="M22.8041875,16.4833035 C22.4950251,15.8579443 22.3972172,15.295006 22.5107636,14.7944886" id="Path-3" stroke="#2A1844" stroke-width="0.666666667"></path>
                        <path d="M22.0041875,16.8884395 C21.6950251,16.2630804 21.5972172,15.7001421 21.7107636,15.1996246" id="Path-3" stroke="#2A1844" stroke-width="0.666666667"></path>
                        <ellipse id="Oval" fill="#F42534" cx="18" cy="2.02568014" rx="2" ry="2.02568014"></ellipse>
                    </g>
                </g>
            </g>
        </g>
    </g>
</svg>