<?xml version="1.0" encoding="UTF-8"?>
<svg width="24px" height="24px" viewBox="0 0 24 24" version="1.1" xmlns="http://www.w3.org/2000/svg" xmlns:xlink="http://www.w3.org/1999/xlink">
    <title>minus</title>
    <g id="Page-1" stroke="none" stroke-width="1" fill="none" fill-rule="evenodd">
        <g id="mob_acceso04" transform="translate(-266.000000, -5612.000000)">
            <g id="Group-34" transform="translate(12.000000, 5594.000000)">
                <g id="minus" transform="translate(254.000000, 18.000000)">
                    <rect id="Rectangle" x="0" y="0" width="24" height="24"></rect>
                    <path d="M12,0.75 L12,23.25 C18.2132034,23.25 23.2499998,18.2132034 23.2499998,12 C23.2499998,5.78679663 18.2132034,0.75 12,0.75 Z" id="Path" fill="#1BB5EC" fill-rule="nonzero"></path>
                    <path d="M15.75,12.75 L8.25,12.75 C7.83578644,12.75 7.5,12.4142136 7.5,12 C7.5,11.5857864 7.83578644,11.25 8.25,11.25 L15.75,11.25 C16.1642136,11.25 16.5,11.5857864 16.5,12 C16.5,12.4142136 16.1642136,12.75 15.75,12.75 Z" id="Path" fill="#364F6B" fill-rule="nonzero"></path>
                    <path d="M12,23.25 C5.78679656,23.25 0.75,18.2132034 0.75,12 C0.75,5.78679656 5.78679656,0.75 12,0.75 C18.2132034,0.75 23.25,5.78679656 23.25,12 C23.2429736,18.2102907 18.2102907,23.2429736 12,23.25 Z M12,2.25 C6.61522369,2.25 2.25,6.61522369 2.25,12 C2.25,17.3847763 6.61522369,21.75 12,21.75 C17.3847763,21.75 21.75,17.3847763 21.75,12 C21.7438005,6.6177937 17.3822063,2.25619951 12,2.25 Z" id="Shape" fill="#364F6B" fill-rule="nonzero"></path>
                </g>
            </g>
        </g>
    </g>
</svg>