<?xml version="1.0" encoding="UTF-8"?>
<svg width="24px" height="24px" viewBox="0 0 24 24" version="1.1" xmlns="http://www.w3.org/2000/svg" xmlns:xlink="http://www.w3.org/1999/xlink">
    <!-- Generator: Sketch 61.1 (89650) - https://sketch.com -->
    <title>Group 34</title>
    <desc>Created with Sketch.</desc>
    <g id="Page-1" stroke="none" stroke-width="1" fill="none" fill-rule="evenodd">
        <g id="02_hazte-socio-menu" transform="translate(-604.000000, -309.000000)">
            <g id="Group-10" transform="translate(603.000000, 270.000000)">
                <g id="Group-7" transform="translate(1.000000, 39.000000)">
                    <g id="Group-34">
                        <path d="M13.8598241,22.7136447 L15.1392003,20.3811359 L17.6560718,21.2429705 L18.0064552,18.6058068 L20.6646985,18.5002448 L20.038768,15.9145898 L22.4793726,14.855888 L20.9616634,12.6709487 L22.8550123,10.8020905 L20.6504995,9.31295508 L21.7408853,6.88634022 L19.1473006,6.29412468 L19.2874606,3.63748094 L16.655082,4.02216725 L15.8260869,1.49428908 L13.5104317,2.80392323 L11.8242419,0.746214598 L10.1380521,2.80392323 L7.82239685,1.49428908 L6.99340179,4.02216725 L4.36102316,3.63748094 L4.50118321,6.29412468 L1.90759852,6.88634022 L2.99798428,9.31295508 L0.793471509,10.8020905 L2.68682035,12.6709487 L1.16911116,14.855888 L3.60971583,15.9145898 L2.98378527,18.5002448 L5.64202857,18.6058068 L5.99241202,21.2429705 L8.50928348,20.3811359 L9.78865972,22.7136447 L11.8242419,21.000809 L13.8598241,22.7136447 Z" id="Star" stroke="#131F6B" stroke-width="0.945939358"></path>
                        <path d="M10.4365489,8.04048449 C10.8537102,8.04048449 11.1996841,8.17457005 11.4744808,8.44274519 C11.7492776,8.71092034 11.8866739,9.06682646 11.8866739,9.51047424 C11.8866739,9.95412201 11.7509329,10.3083728 11.479447,10.5732371 C11.207961,10.8381014 10.8603318,10.9705316 10.4365489,10.9705316 C10.0127659,10.9705316 9.66513668,10.8381014 9.39365073,10.5732371 C9.12216478,10.3083728 8.98642384,9.95412201 8.98642384,9.51047424 C8.98642384,9.06682646 9.12216478,8.71092034 9.39365073,8.44274519 C9.66513668,8.17457005 10.0127659,8.04048449 10.4365489,8.04048449 Z M14.3896294,8.12987575 L10.3670223,15.1421242 L9.47310963,15.1421242 L13.4957167,8.12987575 L14.3896294,8.12987575 Z M9.62209508,9.51047424 C9.62209508,9.77533858 9.69658706,9.99053763 9.84557325,10.1560778 C9.99455944,10.3216181 10.1882386,10.4043869 10.4266165,10.4043869 C10.671616,10.4043869 10.8702613,10.3216181 11.0225583,10.1560778 C11.1748553,9.99053763 11.2510026,9.77533858 11.2510026,9.51047424 C11.2510026,9.24560989 11.1748553,9.03041084 11.0225583,8.86487063 C10.8702613,8.69933042 10.671616,8.61656155 10.4266165,8.61656155 C10.1882386,8.61656155 9.99455944,8.69933042 9.84557325,8.86487063 C9.69658706,9.03041084 9.62209508,9.24560989 9.62209508,9.51047424 Z M13.4361225,12.3014683 C13.8599055,12.3014683 14.2058794,12.4338985 14.4740545,12.6987628 C14.7422296,12.9636272 14.8763152,13.3178779 14.8763152,13.7615257 C14.8763152,14.2051735 14.7422296,14.5610796 14.4740545,14.8292547 C14.2058794,15.0974299 13.8599055,15.2315154 13.4361225,15.2315154 C13.0189612,15.2315154 12.6729873,15.0974299 12.3981906,14.8292547 C12.1233938,14.5610796 11.9859975,14.2051735 11.9859975,13.7615257 C11.9859975,13.3178779 12.1217385,12.9636272 12.3932244,12.6987628 C12.6647104,12.4338985 13.0123396,12.3014683 13.4361225,12.3014683 Z M12.6216688,13.7615257 C12.6216688,14.02639 12.6961607,14.2415891 12.8451469,14.4071293 C12.9941331,14.5726695 13.191123,14.6554384 13.4361225,14.6554384 C13.6745005,14.6554384 13.8681796,14.5726695 14.0171658,14.4071293 C14.166152,14.2415891 14.240644,14.02639 14.240644,13.7615257 C14.240644,13.4966613 14.166152,13.2814623 14.0171658,13.1159221 C13.8681796,12.9503819 13.6745005,12.867613 13.4361225,12.867613 C13.191123,12.867613 12.9941331,12.9503819 12.8451469,13.1159221 C12.6961607,13.2814623 12.6216688,13.4966613 12.6216688,13.7615257 Z" id="%" fill="#131F6B" fill-rule="nonzero"></path>
                    </g>
                </g>
            </g>
        </g>
    </g>
</svg>